<svg width="26" height="25" viewBox="0 0 26 25" fill="none" xmlns="http://www.w3.org/2000/svg">
<path d="M24.1201 0H1.87986C1.5139 0 1.16293 0.145378 0.904152 0.404152C0.645378 0.662926 0.5 1.0139 0.5 1.37986V23.6205C0.500092 23.9864 0.645511 24.3373 0.904275 24.596C1.16304 24.8547 1.51396 25 1.87986 25H13.8531V15.3187H10.5951V11.5458H13.8531V8.76319C13.8531 5.53403 15.8253 3.77604 18.7059 3.77604C20.0858 3.77604 21.2715 3.87847 21.6174 3.92465V7.2993L19.6194 7.30035C18.0528 7.30035 17.7497 8.04479 17.7497 9.13715V11.5462H21.4858L20.9993 15.3191H17.7497V25H24.1205C24.4864 24.9999 24.8373 24.8545 25.096 24.5957C25.3547 24.337 25.5 23.986 25.5 23.6201V1.37986C25.5 1.0139 25.3546 0.662926 25.0958 0.404152C24.8371 0.145378 24.4861 0 24.1201 0Z" fill="white"/>
</svg>
