<svg width="26" height="25" viewBox="0 0 26 25" fill="none" xmlns="http://www.w3.org/2000/svg">
<path d="M19.2365 10.8863C19.2365 14.2832 16.4444 17.037 13.0003 17.037C9.55625 17.037 6.76424 14.2832 6.76424 10.8863C6.76424 9.92911 6.99236 9.02671 7.3875 8.21918H0.5V22.6027C0.5 23.9212 1.59375 25 2.93056 25H23.0694C24.4062 25 25.5 23.9212 25.5 22.6027V8.21918H18.6128C19.0225 9.05029 19.2357 9.96219 19.2365 10.8863Z" fill="white"/>
<path d="M23.0694 0H2.93056C1.59375 0 0.5 1.07877 0.5 2.39726V7.19178H8.02257C9.16076 5.7024 10.9635 4.73562 13 4.73562C15.0365 4.73562 16.8392 5.7024 17.9774 7.19178H25.5V2.39726C25.5 1.07877 24.4062 0 23.0694 0ZM2.49861 6.06712H1.59375V2.60993C1.59372 2.323 1.67962 2.04246 1.84066 1.8035C2.0017 1.56455 2.23071 1.37783 2.49896 1.26678V6.06712H2.49861ZM3.98125 6.06712H3.12396V1.15342H3.98125V6.06712ZM5.46354 6.06712H4.60625V1.15342H5.46354V6.06712ZM6.94479 2.60993V6.06712H6.08854V1.15342H6.94479V2.60993ZM24.233 4.61062C24.233 4.80184 24.1949 4.99121 24.1207 5.16789C24.0466 5.34458 23.9379 5.50513 23.8008 5.64038C23.6637 5.77563 23.501 5.88293 23.3219 5.95615C23.1428 6.02937 22.9508 6.06708 22.7569 6.06712H20.358C20.1641 6.06712 19.9721 6.02945 19.7929 5.95625C19.6138 5.88305 19.451 5.77576 19.3139 5.6405C19.1768 5.50525 19.0681 5.34468 18.9939 5.16797C18.9197 4.99126 18.8816 4.80187 18.8816 4.61062V2.60993C18.8816 2.41868 18.9197 2.22929 18.9939 2.05258C19.0681 1.87587 19.1768 1.7153 19.3139 1.58005C19.451 1.44479 19.6138 1.3375 19.7929 1.2643C19.9721 1.1911 20.1641 1.15342 20.358 1.15342H22.7569C22.9508 1.15342 23.1428 1.1911 23.322 1.26431C23.5011 1.33751 23.6638 1.44481 23.8009 1.58007C23.938 1.71533 24.0467 1.8759 24.1208 2.0526C24.195 2.22931 24.2331 2.41869 24.233 2.60993V4.61062Z" fill="white"/>
<path d="M13.0004 16.3178C16.0337 16.3178 18.4927 13.8914 18.4927 10.9004C18.4927 7.90891 16.0341 5.48254 13.0004 5.48254C9.96635 5.48254 7.50732 7.90891 7.50732 10.9004C7.50732 13.8911 9.96635 16.3178 13.0004 16.3178ZM13 6.58391C15.4167 6.58391 17.3764 8.51645 17.3764 10.9004C17.3764 13.2839 15.417 15.2168 13 15.2168C10.583 15.2168 8.62364 13.2843 8.62364 10.9004C8.62399 8.51611 10.5834 6.58391 13 6.58391Z" fill="white"/>
</svg>
