<svg width="26" height="25" viewBox="0 0 26 25" fill="none" xmlns="http://www.w3.org/2000/svg">
<path d="M13 0C6.09635 0 0.5 5.59635 0.5 12.5C0.5 19.4036 6.09635 25 13 25C19.9036 25 25.5 19.4036 25.5 12.5C25.5 5.59635 19.9036 0 13 0ZM13.8555 15.4622C13.0534 15.401 12.7174 15.0039 12.0898 14.6237C11.7448 16.4349 11.3229 18.1719 10.0729 19.0794C9.6862 16.3398 10.638 14.2852 11.0807 12.1016C10.3268 10.832 11.1706 8.27864 12.7617 8.90625C14.7188 9.68229 11.0664 13.6263 13.5182 14.1198C16.0781 14.6328 17.1237 9.67708 15.5365 8.06771C13.2422 5.74089 8.86068 8.01432 9.39974 11.3451C9.52995 12.1589 10.3724 12.4062 9.73568 13.5299C8.26823 13.2044 7.82943 12.0469 7.88672 10.5039C7.97656 7.97786 10.1563 6.20833 12.3411 5.96484C15.1055 5.65755 17.6992 6.97917 18.0586 9.58073C18.4609 12.5156 16.8099 15.6914 13.8555 15.4622Z" fill="white"/>
</svg>
