<svg width="20" height="20" viewBox="0 0 20 20" fill="none" xmlns="http://www.w3.org/2000/svg">
<g clip-path="url(#clip0_622_4652)">
<path d="M14.6668 14.8891H13.6668C13.0001 14.1113 11.0001 12.1113 10.2223 11.3335L9.11121 12.5557C10.3665 13.7471 11.5536 15.0083 12.6668 16.3335L12.889 16.5557H14.5557V20.0002L15.3334 19.3335L19.889 16.0002L14.5557 11.8891V14.8891H14.6668Z" fill="white"/>
<path d="M14.6667 3.11111H13.1111L1.77778 15.1111H0V16.7778H2.55556L13.8889 4.77778H14.6667V8L15.4444 7.33333L20 4.11111L14.6667 0V3.11111Z" fill="white"/>
<path d="M5.22222 8.33355L6.33333 7.11133C5.07799 5.91999 3.89092 4.65872 2.77778 3.33355L2.55556 3.11133H0V4.77799H1.77778C2.55556 5.55577 4.44444 7.66688 5.22222 8.33355Z" fill="white"/>
</g>
<defs>
<clipPath id="clip0_622_4652">
<rect width="20" height="20" fill="white"/>
</clipPath>
</defs>
</svg>
