<svg width="17" height="17" viewBox="0 0 17 17" fill="none" xmlns="http://www.w3.org/2000/svg">
<path fill-rule="evenodd" clip-rule="evenodd" d="M10.9418 10.9422C11.0347 10.8492 11.145 10.7755 11.2664 10.7252C11.3878 10.6748 11.5179 10.6489 11.6493 10.6489C11.7807 10.6489 11.9109 10.6748 12.0323 10.7252C12.1537 10.7755 12.2639 10.8492 12.3568 10.9422L16.2068 14.7922C16.3945 14.9797 16.4999 15.2341 16.5 15.4994C16.5001 15.7646 16.3948 16.0191 16.2073 16.2067C16.0198 16.3944 15.7654 16.4998 15.5002 16.4999C15.2349 16.5 14.9805 16.3947 14.7928 16.2072L10.9428 12.3572C10.8498 12.2643 10.7761 12.1541 10.7258 12.0327C10.6754 11.9113 10.6495 11.7811 10.6495 11.6497C10.6495 11.5183 10.6754 11.3882 10.7258 11.2668C10.7761 11.1454 10.8498 11.0351 10.9428 10.9422H10.9418Z" fill="#8C8491"/>
<path fill-rule="evenodd" clip-rule="evenodd" d="M6.99988 12.5C7.72215 12.5 8.43735 12.3577 9.10464 12.0813C9.77193 11.8049 10.3782 11.3998 10.889 10.8891C11.3997 10.3784 11.8048 9.77205 12.0812 9.10476C12.3576 8.43747 12.4999 7.72227 12.4999 7C12.4999 6.27773 12.3576 5.56253 12.0812 4.89524C11.8048 4.22795 11.3997 3.62163 10.889 3.11091C10.3782 2.60019 9.77193 2.19506 9.10464 1.91866C8.43735 1.64226 7.72215 1.5 6.99988 1.5C5.54119 1.5 4.14224 2.07946 3.11079 3.11091C2.07934 4.14236 1.49988 5.54131 1.49988 7C1.49988 8.45869 2.07934 9.85764 3.11079 10.8891C4.14224 11.9205 5.54119 12.5 6.99988 12.5ZM13.4999 7C13.4999 8.72391 12.8151 10.3772 11.5961 11.5962C10.3771 12.8152 8.72379 13.5 6.99988 13.5C5.27597 13.5 3.62267 12.8152 2.40368 11.5962C1.1847 10.3772 0.499878 8.72391 0.499878 7C0.499878 5.27609 1.1847 3.62279 2.40368 2.40381C3.62267 1.18482 5.27597 0.5 6.99988 0.5C8.72379 0.5 10.3771 1.18482 11.5961 2.40381C12.8151 3.62279 13.4999 5.27609 13.4999 7Z" fill="#8C8491"/>
</svg>
