<svg width="16" height="16" viewBox="0 0 16 16" fill="none" xmlns="http://www.w3.org/2000/svg">
<path d="M14.1118 9.008L16 10.608L14.3437 13.376L11.942 12.592C11.412 13.024 10.8157 13.36 10.1532 13.6L9.65632 16H6.34369L5.84679 13.616C5.18427 13.376 4.58799 13.04 4.05797 12.608L1.65631 13.392L0 10.624L1.8882 9.024C1.75569 8.224 1.75569 7.808 1.8882 7.008L0 5.408L1.65631 2.64L4.05797 3.424C4.58799 2.992 5.18427 2.656 5.84679 2.416L6.34369 0H9.65632L10.1532 2.384C10.8157 2.624 11.412 2.96 11.942 3.392L14.3437 2.608L16 5.376L14.1118 6.976C14.2443 7.792 14.2443 8.208 14.1118 9.008ZM11.3126 8C11.3126 6.24 9.82195 4.8 8 4.8C6.17805 4.8 4.68737 6.24 4.68737 8C4.68737 9.76 6.17805 11.2 8 11.2C9.82195 11.2 11.3126 9.76 11.3126 8Z" fill="white"/>
</svg>
