<svg width="47" height="47" viewBox="0 0 47 47" fill="none" xmlns="http://www.w3.org/2000/svg">
<path d="M23.5 10.0713C21.8401 10.0713 20.2174 10.5635 18.8372 11.4857C17.457 12.408 16.3813 13.7187 15.746 15.2523C15.1108 16.7859 14.9446 18.4735 15.2684 20.1015C15.5923 21.7296 16.3916 23.225 17.5654 24.3988C18.7392 25.5726 20.2346 26.3719 21.8627 26.6957C23.4907 27.0196 25.1783 26.8534 26.7118 26.2181C28.2454 25.5829 29.5562 24.5072 30.4784 23.127C31.4007 21.7468 31.8929 20.1241 31.8929 18.4641C31.8929 16.2382 31.0087 14.1035 29.4347 12.5295C27.8607 10.9555 25.726 10.0713 23.5 10.0713Z" fill="white"/>
<path d="M23.5 0C18.8521 0 14.3087 1.37825 10.4441 3.96046C6.57955 6.54268 3.5675 10.2129 1.78884 14.5069C0.0101822 18.801 -0.455196 23.5261 0.451556 28.0846C1.35831 32.6432 3.59647 36.8305 6.883 40.117C10.1695 43.4035 14.3568 45.6417 18.9154 46.5484C23.4739 47.4552 28.199 46.9898 32.4931 45.2112C36.7871 43.4325 40.4573 40.4204 43.0395 36.5559C45.6217 32.6913 47 28.1479 47 23.5C46.9929 17.2696 44.5147 11.2964 40.1092 6.89084C35.7036 2.48528 29.7304 0.00710828 23.5 0ZM36.9151 38.4829C36.8817 36.2812 35.9846 34.1807 34.4173 32.6341C32.8499 31.0874 30.7377 30.2184 28.5357 30.2143H18.4643C16.2623 30.2184 14.1501 31.0874 12.5827 32.6341C11.0154 34.1807 10.1183 36.2812 10.0849 38.4829C7.04088 35.7649 4.89427 32.1864 3.92927 28.2213C2.96426 24.2561 3.22639 20.0914 4.68094 16.2785C6.13549 12.4657 8.71384 9.18458 12.0746 6.86966C15.4354 4.55475 19.42 3.31522 23.5008 3.31522C27.5817 3.31522 31.5663 4.55475 34.9271 6.86966C38.2878 9.18458 40.8662 12.4657 42.3208 16.2785C43.7753 20.0914 44.0374 24.2561 43.0724 28.2213C42.1074 32.1864 39.9608 35.7649 36.9168 38.4829H36.9151Z" fill="white"/>
</svg>
